<?xml version="1.0" encoding="UTF-8" standalone="no"?>
<!-- Created with Inkscape (http://www.inkscape.org/) -->

<svg
   xmlns:dc="http://purl.org/dc/elements/1.1/"
   xmlns:cc="http://creativecommons.org/ns#"
   xmlns:rdf="http://www.w3.org/1999/02/22-rdf-syntax-ns#"
   xmlns:svg="http://www.w3.org/2000/svg"
   xmlns="http://www.w3.org/2000/svg"
   xmlns:sodipodi="http://sodipodi.sourceforge.net/DTD/sodipodi-0.dtd"
   xmlns:inkscape="http://www.inkscape.org/namespaces/inkscape"
   width="156mm"
   height="218mm"
   viewBox="0 0 156 218"
   version="1.1"
   id="svg8"
   inkscape:version="0.92.2 (5c3e80d, 2017-08-06)"
   sodipodi:docname="back_cover.svg">
  <defs
     id="defs2" />
  <sodipodi:namedview
     id="base"
     pagecolor="#ffffff"
     bordercolor="#666666"
     borderopacity="1.0"
     inkscape:pageopacity="0.0"
     inkscape:pageshadow="2"
     inkscape:zoom="0.515"
     inkscape:cx="741.9614"
     inkscape:cy="355.92983"
     inkscape:document-units="mm"
     inkscape:current-layer="layer1"
     showgrid="false"
     showguides="true"
     inkscape:guide-bbox="true"
     inkscape:window-width="1920"
     inkscape:window-height="1017"
     inkscape:window-x="-8"
     inkscape:window-y="-8"
     inkscape:window-maximized="1"
     inkscape:measure-start="130.927,491.339"
     inkscape:measure-end="130.927,421.339"
     borderlayer="true"
     inkscape:snap-center="false"
     inkscape:snap-text-baseline="true">
    <inkscape:grid
       type="xygrid"
       id="grid815"
       units="mm"
       spacingx="0.99999998"
       spacingy="0.99999998"
       originx="3.9999999"
       originy="3.9999999"
       color="#3f3fff"
       opacity="0.1254902"
       empcolor="#3f3fff"
       empopacity="0.25098039"
       enabled="true"
       visible="true" />
    <sodipodi:guide
       position="3.9999998,213.99999"
       orientation="0,1"
       id="guide817"
       inkscape:locked="false" />
    <sodipodi:guide
       position="3.9999997,213.99999"
       orientation="1,0"
       id="guide821"
       inkscape:locked="false" />
    <sodipodi:guide
       position="151.99999,213.99999"
       orientation="1,0"
       id="guide823"
       inkscape:locked="false" />
    <sodipodi:guide
       position="3.9999996,3.9999999"
       orientation="0,1"
       id="guide825"
       inkscape:locked="false" />
    <inkscape:grid
       type="axonomgrid"
       id="grid995"
       units="px"
       empspacing="5"
       spacingy="0.13229166"
       gridanglex="30"
       gridanglez="30"
       enabled="false" />
    <sodipodi:guide
       position="77.999998,0"
       orientation="1,0"
       id="guide947"
       inkscape:locked="false"
       inkscape:label=""
       inkscape:color="rgb(0,0,255)" />
    <sodipodi:guide
       position="0,109"
       orientation="0,1"
       id="guide949"
       inkscape:locked="false"
       inkscape:label=""
       inkscape:color="rgb(0,0,255)" />
  </sodipodi:namedview>
  <metadata
     id="metadata5">
    <rdf:RDF>
      <cc:Work
         rdf:about="">
        <dc:format>image/svg+xml</dc:format>
        <dc:type
           rdf:resource="http://purl.org/dc/dcmitype/StillImage" />
        <dc:title></dc:title>
      </cc:Work>
    </rdf:RDF>
  </metadata>
  <g
     inkscape:label="背景"
     inkscape:groupmode="layer"
     id="layer1"
     transform="translate(0,-79)"
     style="display:inline">
    <g
       id="g941"
       transform="matrix(0.33009669,0.19058141,-0.19058141,0.33009669,96.396157,109.56943)">
      <path
         inkscape:export-ydpi="90.066628"
         inkscape:export-xdpi="90.066628"
         inkscape:export-filename="C:\Apache Software Foundation\Apache2.2\htdocs\lbs\file\other\33.png"
         sodipodi:nodetypes="cccccccc"
         inkscape:connector-curvature="0"
         id="path4097"
         d="m 61.24461,183.83505 9.165429,5.29165 -4.582698,7.93751 13.748158,7.93751 4.582716,-7.9375 9.165436,5.29167 -5e-6,-37.04168 z"
         style="fill:#33abff;fill-opacity:1;stroke:none;stroke-width:0.52916664" />
      <path
         inkscape:export-ydpi="90.066628"
         inkscape:export-xdpi="90.066628"
         inkscape:export-filename="C:\Apache Software Foundation\Apache2.2\htdocs\lbs\file\other\33.png"
         sodipodi:nodetypes="cccc"
         inkscape:connector-curvature="0"
         id="path4097-1"
         d="m 93.323651,202.35589 32.079019,18.52083 -32.079022,18.52083 z"
         style="fill:#33c3ff;fill-opacity:1;stroke:none;stroke-width:0.52916664;stroke-opacity:1" />
      <path
         inkscape:export-ydpi="90.066628"
         inkscape:export-xdpi="90.066628"
         inkscape:export-filename="C:\Apache Software Foundation\Apache2.2\htdocs\lbs\file\other\33.png"
         sodipodi:nodetypes="ccssscssccccccc"
         inkscape:connector-curvature="0"
         id="path3084-51-7-15"
         d="m 61.24461,220.87672 32.079041,-18.52084 -10.998541,-6.35 c -0.458259,-0.2646 -0.916538,-0.26458 -1.374799,0 -0.73488,0.42428 0.22914,1.98438 -0.45828,3.175 -0.804679,1.39376 -3.666161,2.11666 -6.874081,0.2646 -3.207898,-1.8521 -3.895299,-4.89482 -3.20788,-6.08544 0.687401,-1.19062 2.520479,-0.92604 2.520461,-1.98436 1.8e-5,-0.52918 -0.229121,-0.92606 -0.687401,-1.19062 l -10.99852,-6.35001 v 10.58333 h -9.16544 l 2e-5,15.875 9.16542,0.0318 z"
         style="fill:#ffc333;fill-opacity:1;stroke:none;stroke-width:0.52916664" />
      <path
         inkscape:export-ydpi="90.066628"
         inkscape:export-xdpi="90.066628"
         inkscape:export-filename="C:\Apache Software Foundation\Apache2.2\htdocs\lbs\file\other\33.png"
         sodipodi:nodetypes="ccccccssscssccccccc"
         inkscape:connector-curvature="0"
         id="path3084-5"
         d="m 29.16559,202.35588 9.165441,5.29166 -4.5827,7.9375 13.748139,7.9375 4.58272,-7.9375 9.16542,5.29168 v -12.7 c 2.1e-5,-0.52918 -0.229119,-0.92606 -0.687401,-1.19062 -0.734877,-0.42428 -1.60396,1.1906 -2.978779,1.19062 -1.609379,-2e-5 -3.66618,-2.11668 -3.66618,-5.82084 0,-3.70416 2.291381,-5.82082 3.66618,-5.82084 1.374841,4e-5 2.062241,1.7198 2.978779,1.19064 0.458261,-0.26458 0.687401,-0.66146 0.687401,-1.19062 v -12.7 l -9.1412,5.27768 -4.60698,-7.9235 -13.748139,7.9375 4.60004,7.9275 z"
         style="fill:#ffdb33;fill-opacity:1;stroke:none;stroke-width:0.52916664" />
      <path
         inkscape:export-ydpi="90.066628"
         inkscape:export-xdpi="90.066628"
         inkscape:export-filename="C:\Apache Software Foundation\Apache2.2\htdocs\lbs\file\other\33.png"
         sodipodi:nodetypes="ccssscssccc"
         inkscape:connector-curvature="0"
         id="path3084"
         d="m 29.16559,165.31422 v 37.04166 l 10.99854,-6.34998 c 0.45826,-0.26462 0.68738,-0.66148 0.68738,-1.19064 0,-0.84856 -1.833079,-0.79376 -2.520479,-1.98438 -0.8047,-1.39378 0,-4.23334 3.207879,-6.08542 3.20792,-1.85208 6.1867,-0.92604 6.8741,0.26458 0.6874,1.19064 -0.45828,2.64586 0.45826,3.175 0.45828,0.2646 0.91654,0.26458 1.37484,2e-5 l 10.9985,-6.35001 z"
         style="fill:#ff9433;fill-opacity:1;stroke:none;stroke-width:0.52916664" />
      <path
         inkscape:export-ydpi="90.066628"
         inkscape:export-xdpi="90.066628"
         inkscape:export-filename="C:\Apache Software Foundation\Apache2.2\htdocs\lbs\file\other\33.png"
         sodipodi:nodetypes="ccssscssccc"
         inkscape:connector-curvature="0"
         id="path3084-51"
         d="m 29.16559,239.39756 32.07902,-18.52084 -10.99854,-6.35 c -0.45826,-0.2646 -0.91654,-0.26458 -1.37478,-2e-5 -0.7349,0.4243 0.22914,1.9844 -0.45828,3.17502 -0.8047,1.39376 -3.66618,2.11666 -6.87408,0.26458 -3.207899,-1.8521 -3.895299,-4.8948 -3.20788,-6.08542 0.687401,-1.19062 2.52048,-0.92606 2.52048,-1.98438 0,-0.52916 -0.22914,-0.92604 -0.68742,-1.19062 L 29.16559,202.3559 Z"
         style="fill:#ffab33;fill-opacity:1;stroke:none;stroke-width:0.52916664" />
    </g>
  </g>
</svg>
